<svg xmlns="http://www.w3.org/2000/svg" width="285" height="157" fill="none" xmlns:v="https://vecta.io/nano"><style><![CDATA[.B{fill:#cad7dc}.C{stroke:#cad7dc}.D{stroke-width:1.403}.E{stroke-width:2.805}.F{stroke-width:.699}.G{stroke-width:2.102}]]></style><path d="M3.965 11.896H0l1.983-1.983 1.983 1.983z" class="B"/><path d="M10.905 2.974l-7.93 7.93" class="C E"/><g class="B"><path d="M11.896 3.965V0L9.913 1.983l1.983 1.983z"/><path d="M11.896 0h14.87v1.983h-14.87z"/><path d="M11.896 3.965V1.983h1.983l-1.983 1.983zM0 26.765h.991v15.861H0z"/><path d="M.991 27.757v-.991h.991l-.991.991zm0 14.869v-.991l.991.991H.991zM26.765 0h14.87v.991h-14.87z"/><path d="M26.765 1.983V.991h.991l-.991.991zm14.87 0V.991h-.991l.991.991zM0 11.896h1.983v14.87H0z"/><path d="M1.983 13.878v-1.983h1.983l-1.983 1.983zM41.635 0v1.983l.991-.991L41.635 0z"/></g><path d="M42.131 1.487l.991.991" class="C D"/><path d="M43.617 1.983v1.983l-.991-.991.991-.991zM1.983 42.626H0l.991.991.991-.991z" class="B"/><path d="M1.487 43.122l4.957 4.957" class="C D"/><g class="B"><path d="M7.93 48.574H5.947l.991-.991.991.991z"/><path d="M6.939 48.574h.991v12.887h-.991z"/><path d="M6.939 49.565v-.991h-.991l.991.991zm.991 13.091v-1.195h-.991l.991 1.195zM101.609.991v.991l.495-.496-.495-.496z"/></g><path d="M101.857 1.735l1.983 1.983" class="C F"/><g class="B"><path d="M104.087 3.47v.991l-.496-.496.496-.496z"/><path d="M104.087 3.47v2.974l1.487-1.487-1.487-1.487z"/></g><path d="M104.831 5.7l4.461 4.461" class="C G"/><g class="B"><path d="M110.035 9.417v2.974l-1.487-1.487 1.487-1.487zM45.6.991h56.009v.496H45.6z"/><path d="M101.609 1.983v-.496h-.496l.496.496zM45.6 1.487V.991h-.496l.496.496zm-1.983 1.487h57v.991h-57z"/><path d="M43.617 2.974v-.991l.991.991h-.991zm57 .991v-.991l.992.991h-.992z"/></g><g opacity=".4" class="B"><path d="M3.965 51.548v-1.983l-1.983 1.983h1.983z"/><path d="M1.983 51.548h1.983v6H1.983z"/><path d="M1.983 59.53v-1.983h1.983L1.983 59.53z"/></g><path d="M3.965 144.235H0l1.983 1.983 1.983-1.983z" class="B"/><path d="M10.905 153.157l-7.93-7.93" class="C E"/><g class="B"><path d="M11.896 152.166v3.965l-1.983-1.983 1.983-1.982z"/><path d="M11.896 156.131h14.87v-1.983h-14.87z"/><path d="M11.896 152.166v1.982h1.983l-1.983-1.982zM0 129.366h.991v-15.861H0z"/><path d="M.991 128.374v.992h.991l-.991-.992zm0-14.869v.991l.991-.991H.991zm25.774 42.626h14.87v-.991h-14.87z"/><path d="M26.765 154.148v.991h.991l-.991-.991zm14.87 0v.992h-.991l.991-.992zM0 144.235h1.983v-14.87H0z"/><path d="M1.983 142.253v1.982h1.983l-1.983-1.982zm39.652 13.878v-1.983l.991.992-.991.991z"/></g><path d="M42.131 154.644l.991-.991" class="C D"/><path d="M43.617 154.148v-1.982l-.991.991.991.991zM1.983 113.505H0l.991-.992.991.992z" class="B"/><path d="M1.487 113.009l4.957-4.956" class="C D"/><g class="B"><path d="M7.93 107.557H5.947l.991.991.991-.991z"/><path d="M6.939 107.557h.991V94.67h-.991z"/><path d="M6.939 106.566v.991h-.991l.991-.991zm.991-13.091v1.195h-.991l.991-1.195zm93.679 61.665v-.992l.495.496-.495.496z"/></g><path d="M101.857 154.396l1.983-1.983" class="C F"/><g class="B"><path d="M104.087 152.661v-.991l-.496.496.496.495z"/><path d="M104.087 152.661v-2.974l1.487 1.487-1.487 1.487z"/></g><path d="M104.831 150.431l4.461-4.461" class="C G"/><g class="B"><path d="M110.035 146.713v-2.973l-1.487 1.487 1.487 1.486zM45.6 155.14h56.009v-.496H45.6z"/><path d="M101.609 154.148v.496h-.496l.496-.496zm-56.009.496v.496h-.496l.496-.496zm-1.983-1.487h57v-.991h-57z"/><path d="M43.617 153.157v.991l.991-.991h-.991zm57-.991v.991l.992-.991h-.992z"/></g><g opacity=".4" class="B"><path d="M3.965 104.583v1.983l-1.983-1.983h1.983z"/><path d="M1.983 104.583h1.983v-6H1.983z"/><path d="M1.983 96.6v1.983h1.983L1.983 96.6z"/></g><path d="M281.035 11.896H285l-1.983-1.983-1.982 1.983z" class="B"/><path d="M274.095 2.974l7.931 7.93" class="C E"/><g class="B"><path d="M273.104 3.965V0l1.983 1.983-1.983 1.983z"/><path d="M273.104 0h-14.87v1.983h14.87z"/><path d="M273.104 3.965V1.983h-1.982l1.982 1.983zM285 26.765h-.991v15.861H285z"/><path d="M284.009 27.757v-.991h-.992l.992.991zm0 14.869v-.991l-.992.991h.992zM258.235 0h-14.87v.991h14.87z"/><path d="M258.235 1.983V.991h-.991l.991.991zm-14.87 0V.991h.991l-.991.991zM285 11.896h-1.983v14.87H285z"/><path d="M283.017 13.878v-1.983h-1.982l1.982 1.983zM243.365 0v1.983l-.991-.991.991-.991z"/></g><path d="M242.869 1.487l-.991.991" class="C D"/><path d="M241.383 1.983v1.983l.991-.991-.991-.991zm41.634 40.643H285l-.991.991-.992-.991z" class="B"/><path d="M283.513 43.122l-4.956 4.957" class="C D"/><g class="B"><path d="M277.07 48.574h1.983l-.992-.991-.991.991z"/><path d="M278.061 48.574h-.991v12.887h.991z"/><path d="M278.061 49.565v-.991h.991l-.991.991zm-.991 13.091v-1.195h.991l-.991 1.195zM183.391.991v.991l-.495-.496.495-.496z"/></g><path d="M183.143 1.735l-1.983 1.983" class="C F"/><g class="B"><path d="M180.913 3.47v.991l.496-.496-.496-.496z"/><path d="M180.913 3.47v2.974l-1.487-1.487 1.487-1.487z"/></g><path d="M180.169 5.7l-4.461 4.461" class="C G"/><g class="B"><path d="M174.965 9.417v2.974l1.487-1.487-1.487-1.487zM239.4.991h-56.009v.496H239.4z"/><path d="M183.391 1.983v-.496h.496l-.496.496zm56.009-.496V.991h.496l-.496.496zm1.983 1.487h-57v.991h57z"/><path d="M241.383 2.974v-.991l-.992.991h.992zm-57 .991v-.991l-.992.991h.992z"/></g><g opacity=".4" class="B"><path d="M281.035 51.548v-1.983l1.982 1.983h-1.982z"/><path d="M283.017 51.548h-1.983v6h1.983z"/><path d="M283.017 59.53v-1.983h-1.982l1.982 1.983z"/></g><path d="M281.035 144.235H285l-1.983 1.983-1.982-1.983z" class="B"/><path d="M274.095 153.157l7.931-7.93" class="C E"/><g class="B"><path d="M273.104 152.166v3.965l1.983-1.983-1.983-1.982z"/><path d="M273.104 156.131h-14.87v-1.983h14.87z"/><path d="M273.104 152.166v1.982h-1.982l1.982-1.982zm11.896-22.8h-.991v-15.861H285z"/><path d="M284.009 128.374v.992h-.992l.992-.992zm0-14.869v.991l-.992-.991h.992zm-25.774 42.626h-14.87v-.991h14.87z"/><path d="M258.235 154.148v.991h-.991l.991-.991zm-14.87 0v.992h.991l-.991-.992zM285 144.235h-1.983v-14.87H285z"/><path d="M283.017 142.253v1.982h-1.982l1.982-1.982zm-39.652 13.878v-1.983l-.991.992.991.991z"/></g><path d="M242.869 154.644l-.991-.991" class="C D"/><path d="M241.383 154.148v-1.982l.991.991-.991.991zm41.634-40.643H285l-.991-.992-.992.992z" class="B"/><path d="M283.513 113.009l-4.956-4.956" class="C D"/><g class="B"><path d="M277.07 107.557h1.983l-.992.991-.991-.991z"/><path d="M278.061 107.557h-.991V94.67h.991z"/><path d="M278.061 106.566v.991h.991l-.991-.991zm-.991-13.091v1.195h.991l-.991-1.195zm-93.679 61.665v-.992l-.495.496.495.496z"/></g><path d="M183.143 154.396l-1.983-1.983" class="C F"/><g class="B"><path d="M180.913 152.661v-.991l.496.496-.496.495z"/><path d="M180.913 152.661v-2.974l-1.487 1.487 1.487 1.487z"/></g><path d="M180.169 150.431l-4.461-4.461" class="C G"/><g class="B"><path d="M174.965 146.713v-2.973l1.487 1.487-1.487 1.486zm64.435 8.427h-56.009v-.496H239.4z"/><path d="M183.391 154.148v.496h.496l-.496-.496zm56.009.496v.496h.496l-.496-.496zm1.983-1.487h-57v-.991h57z"/><path d="M241.383 153.157v.991l-.992-.991h.992zm-57-.991v.991l-.992-.991h.992z"/></g><g opacity=".4" class="B"><path d="M281.035 104.583v1.983l1.982-1.983h-1.982z"/><path d="M283.017 104.583h-1.983v-6h1.983z"/><path d="M283.017 96.6v1.983h-1.982l1.982-1.983z"/></g></svg>