<svg xmlns="http://www.w3.org/2000/svg" width="78" height="24" fill="none" xmlns:v="https://vecta.io/nano"><path d="M4.004 18.26A23.75 23.75 0 0 1 .494 18v-2.964c1.231.225 2.297.338 3.198.338 1.369 0 2.054-.615 2.054-1.846V1.126h4.056v12.272c0 1.768-.477 3.025-1.43 3.77-.953.728-2.409 1.092-4.368 1.092zm15.556 0c-4.455 0-6.682-1.361-6.682-4.082V9.654c0-1.577.503-2.721 1.508-3.432 1.023-.711 2.591-1.066 4.706-1.066 1.993 0 3.449.347 4.368 1.04.936.676 1.404 1.829 1.404 3.458v3.068H16.7v1.144c0 .728.26 1.248.78 1.56s1.456.468 2.808.468c1.248 0 2.652-.182 4.212-.546v2.418c-1.543.329-3.189.494-4.94.494zm1.69-7.696v-1.82a1.02 1.02 0 0 0-.52-.936c-.329-.208-.893-.312-1.69-.312-.919 0-1.534.104-1.846.312a1.07 1.07 0 0 0-.494.936v1.82h4.55zm10.078 7.332L26.31 5.416h4.134l2.834 8.892 2.574-8.892h3.926l-6.89 17.992H29.04l2.288-5.512z" fill="#e2ff00"/><path d="M41.654 5.416h3.744V6.95c.295-1.196 1.638-1.794 4.03-1.794 1.612 0 2.739.295 3.38.884.659.572.988 1.482.988 2.73V18H50V9.264c0-.485-.052-.849-.156-1.092-.087-.243-.277-.416-.572-.52-.277-.104-.711-.156-1.3-.156-.745 0-1.291.052-1.638.156-.347.087-.581.251-.702.494s-.182.615-.182 1.118V18h-3.796V5.416zM57.221.866h3.796v3.068h-3.796V.866zm0 4.55h3.796V18h-3.796V5.416zm10.77 6.136l-4.68-6.136h4.394l2.47 3.614 2.496-3.614h4.394l-4.706 6.136L77.325 18h-4.394l-2.756-3.952L67.445 18h-4.394l4.94-6.448z" fill="#fff"/></svg>