<svg width="469" height="158" viewBox="0 0 469 158" fill="none" xmlns="http://www.w3.org/2000/svg">
<path fill-rule="evenodd" clip-rule="evenodd" d="M252.138 -368.158C231.705 -346.525 206.389 -317.019 197.939 -283.951C195.168 -273.109 194.21 -261.882 195.831 -250.424C194.157 -242.6 193.457 -234.588 194.012 -226.445C193.959 -226.241 193.906 -226.037 193.854 -225.833C192.207 -219.386 191.2 -212.804 190.995 -206.117C190.248 -203.843 189.575 -201.551 188.985 -199.241C188.605 -197.755 188.26 -196.262 187.95 -194.763C169.995 -174.601 151.1 -149.414 144.025 -121.729C139.797 -105.186 139.79 -87.7465 146.725 -69.9598C153.66 -52.1759 167.526 -34.0671 191.009 -16.1653C245.705 25.5305 297.265 26.7369 336.951 27.6655C340.636 27.7518 344.218 27.8356 347.692 27.9492C368.152 28.6186 384.739 30.3234 396.168 39.5367C407.578 48.7343 413.92 65.4837 413.681 96.4563L414.253 96.4607C414.492 65.4373 408.146 48.4582 396.527 39.0919C384.927 29.7412 368.143 28.0467 347.71 27.3782C344.235 27.2645 340.652 27.1805 336.968 27.0942C297.288 26.1644 245.899 24.96 191.356 -16.6197C167.933 -34.4753 154.144 -52.505 147.257 -70.1674C140.371 -87.827 140.376 -105.142 144.579 -121.588C151.535 -148.81 169.99 -173.638 187.728 -193.652C187.573 -192.855 187.429 -192.055 187.295 -191.254C186.85 -190.206 186.419 -189.154 186.004 -188.096C174.285 -172.384 164.02 -154.725 159.213 -135.914C154.985 -119.37 154.977 -101.931 161.913 -84.1443C168.847 -66.3604 182.714 -48.2516 206.197 -30.3499C260.893 11.3459 312.453 12.5524 352.138 13.481C355.823 13.5672 359.406 13.651 362.879 13.7647C383.339 14.4341 399.927 16.1388 411.356 25.3521C422.766 34.5497 429.107 51.2991 428.869 82.2718L429.44 82.2762C429.679 51.2528 423.334 34.2736 411.714 24.9073C400.115 15.5567 383.33 13.8621 362.898 13.1937C359.439 13.0805 355.875 12.9969 352.209 12.9109L352.179 12.9101L352.16 12.9098L352.156 12.9097C312.476 11.9798 261.087 10.7755 206.543 -30.8042C183.121 -48.6598 169.332 -66.6895 162.445 -84.3519C155.559 -102.012 155.564 -119.327 159.766 -135.772C164.383 -153.84 174.066 -170.853 185.242 -186.104C185.088 -185.692 184.937 -185.278 184.788 -184.864C179.181 -174.966 174.616 -164.537 171.854 -153.727C167.626 -137.183 167.618 -119.744 174.554 -101.957C181.488 -84.1735 195.355 -66.0647 218.838 -48.163C273.534 -6.46713 325.094 -5.26067 364.779 -4.33206C368.464 -4.24585 372.047 -4.162 375.52 -4.04837C395.98 -3.37902 412.568 -1.67422 423.997 7.53908C435.407 16.7367 441.748 33.4861 441.51 64.4587L442.081 64.4631C442.32 33.4397 435.975 16.4606 424.355 7.09427C412.756 -2.25635 395.971 -3.9509 375.539 -4.61937C372.064 -4.73306 368.481 -4.81703 364.797 -4.90337C325.117 -5.83326 273.728 -7.03756 219.184 -48.6173C195.761 -66.4729 181.973 -84.5026 175.086 -102.165C168.2 -119.825 168.205 -137.14 172.407 -153.585C174.894 -163.318 178.851 -172.744 183.719 -181.754C182.988 -179.521 182.329 -177.269 181.749 -175.001C177.522 -158.458 177.514 -141.019 184.45 -123.232C191.384 -105.448 205.251 -87.3395 228.734 -69.4378C283.43 -27.742 334.99 -26.5355 374.675 -25.6069C378.36 -25.5207 381.943 -25.4369 385.416 -25.3232C405.876 -24.6539 422.464 -22.9491 433.893 -13.7358C445.303 -4.53817 451.644 12.2112 451.406 43.1839L451.977 43.1883C452.216 12.1648 445.871 -4.81428 434.251 -14.1806C422.652 -23.5312 405.867 -25.2258 385.435 -25.8942C381.976 -26.0074 378.411 -26.091 374.746 -26.177L374.716 -26.1778L374.697 -26.1782L374.693 -26.1782C335.013 -27.1081 283.624 -28.3124 229.08 -69.8922C205.657 -87.7478 191.869 -105.777 184.982 -123.44C178.096 -141.099 178.101 -158.415 182.303 -174.86C183.144 -178.152 184.154 -181.408 185.309 -184.626C185.762 -185.424 186.222 -186.22 186.688 -187.011C185.165 -174.188 186.437 -160.929 191.685 -147.471C198.62 -129.687 212.486 -111.579 235.969 -93.677C290.665 -51.9812 342.225 -50.7747 381.911 -49.8461C385.596 -49.7599 389.178 -49.676 392.652 -49.5624C413.112 -48.893 429.699 -47.1883 441.129 -37.975C452.538 -28.7773 458.88 -12.028 458.641 18.9447L459.213 18.9491C459.452 -12.0743 453.106 -29.0535 441.487 -38.4198C429.887 -47.7704 413.103 -49.4649 392.67 -50.1334C389.212 -50.2466 385.647 -50.3302 381.982 -50.4162L381.951 -50.417L381.933 -50.4173L381.928 -50.4174C342.248 -51.3473 290.859 -52.5516 236.316 -94.1313C212.893 -111.987 199.104 -130.017 192.217 -147.679C186.83 -161.495 185.661 -175.099 187.419 -188.242C188.227 -189.589 189.053 -190.926 189.896 -192.252C190.426 -192.932 190.958 -193.607 191.492 -194.279C192.267 -187.612 193.903 -180.863 196.554 -174.064C203.489 -156.28 217.355 -138.171 240.839 -120.27C295.534 -78.5739 347.095 -77.3674 386.78 -76.4388C390.465 -76.3526 394.048 -76.2688 397.521 -76.1551C417.981 -75.4858 434.568 -73.781 445.998 -64.5677C457.408 -55.3701 463.749 -38.6207 463.511 -7.64802L464.082 -7.64365C464.321 -38.6671 457.975 -55.6462 446.356 -65.0125C434.756 -74.3631 417.972 -76.0577 397.54 -76.7261C394.081 -76.8393 390.516 -76.9229 386.851 -77.0089L386.82 -77.0097L386.802 -77.0101L386.797 -77.0101C347.118 -77.94 295.728 -79.1443 241.185 -120.724C217.762 -138.58 203.974 -156.609 197.087 -174.272C194.379 -181.215 192.737 -188.105 191.996 -194.91C194.327 -197.823 196.689 -200.658 199.054 -203.412C199.175 -203.092 199.297 -202.771 199.422 -202.45C206.357 -184.666 220.224 -166.558 243.707 -148.656C298.403 -106.96 349.963 -105.754 389.648 -104.825C393.333 -104.739 396.916 -104.655 400.389 -104.541C420.849 -103.872 437.436 -102.167 448.866 -92.9539C460.276 -83.7563 466.617 -67.0069 466.379 -36.0343L466.95 -36.0299C467.189 -67.0533 460.844 -84.0324 449.224 -93.3987C437.625 -102.749 420.84 -104.444 400.408 -105.112C396.949 -105.226 393.384 -105.309 389.719 -105.395L389.688 -105.396L389.67 -105.396L389.666 -105.396C349.986 -106.326 298.597 -107.531 244.053 -149.11C220.63 -166.966 206.842 -184.996 199.955 -202.658C199.792 -203.074 199.634 -203.49 199.479 -203.906C202.838 -207.802 206.199 -211.532 209.48 -215.079C217.4 -202.865 228.932 -190.578 244.923 -178.388C299.619 -136.692 351.179 -135.485 390.865 -134.557C394.55 -134.47 398.132 -134.387 401.606 -134.273C422.066 -133.604 438.653 -131.899 450.082 -122.686C461.492 -113.488 467.834 -96.7385 467.595 -65.7659L468.166 -65.7615C468.405 -96.7849 462.06 -113.764 450.441 -123.13C438.841 -132.481 422.057 -134.176 401.624 -134.844C398.166 -134.957 394.601 -135.041 390.936 -135.127L390.905 -135.128L390.887 -135.128L390.882 -135.128C351.202 -136.058 299.813 -137.262 245.27 -178.842C229.266 -191.042 217.76 -203.322 209.88 -215.512C211.211 -216.948 212.529 -218.353 213.827 -219.728L213.412 -220.12C212.145 -218.779 210.86 -217.408 209.561 -216.008C209.231 -216.525 208.908 -217.042 208.59 -217.559C214.608 -224.77 220.726 -231.462 226.468 -237.541L226.052 -237.933C220.35 -231.895 214.267 -225.245 208.276 -218.074C207.396 -219.528 206.566 -220.98 205.785 -222.43C215.467 -236.056 226.475 -248.346 236.364 -258.816L235.948 -259.208C226.117 -248.799 215.155 -236.567 205.485 -222.993C204.284 -225.26 203.204 -227.523 202.238 -229.781C213.755 -250.215 229.771 -268.415 243.599 -283.055L243.184 -283.447C229.445 -268.902 213.5 -250.798 201.957 -230.444C201.686 -231.093 201.424 -231.742 201.171 -232.39C200.281 -234.673 199.505 -236.952 198.84 -239.223C209.746 -266.64 230.878 -291.024 248.469 -309.647L248.053 -310.04C230.612 -291.575 209.614 -267.374 198.583 -240.117C197.615 -243.564 196.898 -246.994 196.411 -250.404C196.675 -251.633 196.964 -252.858 197.276 -254.078C205.686 -286.988 230.901 -316.398 251.337 -338.034L250.921 -338.426C230.488 -316.793 205.173 -287.288 196.722 -254.22C196.538 -253.498 196.362 -252.775 196.194 -252.05C194.877 -262.891 195.863 -273.521 198.492 -283.81C206.902 -316.719 232.117 -346.13 252.553 -367.765L252.138 -368.158ZM188.479 -194.497C188.413 -194.175 188.349 -193.853 188.286 -193.53C188.514 -194.041 188.746 -194.551 188.981 -195.059C188.814 -194.872 188.646 -194.685 188.479 -194.497ZM190.304 -196.532C190.598 -196.857 190.891 -197.181 191.184 -197.504C191.233 -196.855 191.29 -196.205 191.355 -195.554C190.705 -194.571 190.063 -193.581 189.43 -192.586C188.862 -191.857 188.295 -191.123 187.732 -190.385C187.769 -190.622 187.808 -190.858 187.847 -191.094C188.624 -192.921 189.444 -194.734 190.304 -196.532ZM191.715 -198.088C193.638 -200.198 195.541 -202.249 197.408 -204.236C195.509 -201.644 193.653 -199.001 191.857 -196.309C191.803 -196.903 191.755 -197.496 191.715 -198.088ZM198.17 -205.878C196.046 -203.629 193.869 -201.295 191.665 -198.88C191.657 -199.006 191.65 -199.131 191.644 -199.256C193.343 -202.623 195.177 -205.935 197.117 -209.186C197.442 -208.085 197.793 -206.982 198.17 -205.878ZM189.826 -196.855C189.456 -196.445 189.086 -196.034 188.716 -195.62C188.969 -196.784 189.243 -197.944 189.539 -199.099C189.969 -200.783 190.443 -202.457 190.958 -204.122C190.948 -202.546 190.983 -200.964 191.065 -199.377C190.644 -198.54 190.23 -197.699 189.826 -196.855ZM198.826 -204.024C196.983 -201.882 195.141 -199.689 193.313 -197.449C195.01 -199.946 196.758 -202.401 198.542 -204.812C198.635 -204.549 198.73 -204.287 198.826 -204.024ZM209.16 -215.575C205.912 -212.066 202.583 -208.376 199.254 -204.52C199.151 -204.802 199.051 -205.083 198.952 -205.365C201.96 -209.407 205.067 -213.322 208.205 -217.096C208.517 -216.589 208.835 -216.082 209.16 -215.575ZM207.889 -217.61C207.017 -219.045 206.193 -220.478 205.417 -221.91C202.653 -217.997 200.001 -213.974 197.518 -209.854C197.885 -208.577 198.288 -207.298 198.726 -206.017C201.709 -210.012 204.785 -213.881 207.889 -217.61ZM196.9 -209.935C195.025 -206.815 193.247 -203.638 191.59 -200.41C191.516 -202.286 191.509 -204.156 191.564 -206.017C192.684 -209.417 193.973 -212.774 195.405 -216.085C195.817 -214.041 196.314 -211.991 196.9 -209.935ZM205.115 -222.472C202.387 -218.62 199.765 -214.661 197.305 -210.606C196.711 -212.745 196.213 -214.878 195.807 -217.004C197.629 -221.131 199.672 -225.184 201.886 -229.153C202.85 -226.93 203.925 -224.703 205.115 -222.472ZM201.602 -229.815C201.267 -230.605 200.946 -231.394 200.639 -232.182C199.834 -234.247 199.123 -236.306 198.5 -238.361C196.971 -234.429 195.654 -230.436 194.589 -226.39C194.782 -223.607 195.123 -220.808 195.623 -217.997C197.426 -222.01 199.434 -225.953 201.602 -229.815ZM195.212 -217.072C194.732 -219.616 194.382 -222.151 194.153 -224.673C192.82 -219.218 191.953 -213.669 191.649 -208.046C192.711 -211.09 193.905 -214.1 195.212 -217.072ZM198.236 -239.251C196.796 -235.613 195.535 -231.922 194.485 -228.183C194.157 -235.164 194.749 -242.046 196.079 -248.794C196.594 -245.629 197.308 -242.447 198.236 -239.251ZM126.746 -110.896C135.197 -143.964 160.512 -173.469 180.945 -195.102L181.361 -194.71C160.925 -173.074 135.71 -143.664 127.3 -110.754C123.097 -94.3089 123.093 -76.9937 129.979 -59.334C136.866 -41.6717 150.654 -23.642 174.077 -5.78637C228.62 35.7934 280.01 36.9977 319.689 37.9276C323.373 38.0139 326.956 38.0979 330.431 38.2115C350.864 38.88 367.648 40.5746 379.248 49.9252C390.867 59.2915 397.213 76.2706 396.974 107.294L396.403 107.29C396.641 76.317 390.3 59.5676 378.89 50.37C367.46 41.1567 350.873 39.4519 330.413 38.7825C326.94 38.6689 323.357 38.5851 319.672 38.4989C279.987 37.5702 228.426 36.3638 173.731 -5.33204C150.247 -23.2337 136.381 -41.3425 129.446 -59.1265C122.511 -76.9132 122.519 -94.3522 126.746 -110.896ZM162.133 -186.994C141.7 -165.361 116.384 -135.856 107.934 -102.787C103.706 -86.244 103.698 -68.805 110.634 -51.0183C117.568 -33.2344 131.435 -15.1256 154.918 2.77616C209.614 44.472 261.174 45.6785 300.86 46.6071C304.545 46.6933 308.127 46.7771 311.601 46.8908C332.061 47.5601 348.648 49.2649 360.077 58.4782C371.487 67.6758 377.829 84.4252 377.59 115.398L378.161 115.402C378.4 84.3788 372.055 67.3997 360.436 58.0334C348.836 48.6828 332.052 46.9882 311.619 46.3197C308.144 46.2061 304.561 46.1221 300.877 46.0358C261.197 45.1058 209.808 43.9015 155.265 2.3218C131.842 -15.5338 118.053 -33.5635 111.166 -51.2259C104.28 -68.8855 104.285 -86.2007 108.487 -102.646C116.897 -135.556 142.112 -164.966 162.548 -186.602L162.133 -186.994ZM88.1015 -96.6371C96.5519 -129.705 121.867 -159.211 142.301 -180.843L142.716 -180.451C122.28 -158.816 97.0649 -129.405 88.6551 -96.4956C84.4525 -80.0503 84.4479 -62.7351 91.3338 -45.0755C98.2208 -27.4131 112.01 -9.3834 135.432 8.47221C189.976 50.0519 241.365 51.2562 281.045 52.1861C284.729 52.2725 288.312 52.3564 291.787 52.4701C312.219 53.1386 329.004 54.8331 340.604 64.1838C352.223 73.5501 358.568 90.5292 358.329 121.553L357.758 121.548C357.996 90.5756 351.655 73.8262 340.245 64.6286C328.816 55.4153 312.228 53.7105 291.768 53.0411C288.295 52.9275 284.712 52.8437 281.027 52.7574C241.342 51.8288 189.782 50.6224 135.086 8.92654C111.603 -8.97517 97.736 -27.0839 90.8016 -44.8679C83.8661 -62.6546 83.8739 -80.0936 88.1015 -96.6371ZM121.87 -175.911C101.436 -154.279 76.121 -124.773 67.6707 -91.7048C63.4431 -75.1613 63.4352 -57.7223 70.3707 -39.9356C77.3051 -22.1517 91.1719 -4.04291 114.655 13.8588C169.351 55.5546 220.911 56.7611 260.597 57.6897C264.281 57.7759 267.864 57.8598 271.337 57.9734C291.797 58.6428 308.385 60.3476 319.814 69.5609C331.224 78.7585 337.565 95.5078 337.327 126.481L337.898 126.485C338.137 95.4615 331.792 78.4823 320.173 69.116C308.573 59.7654 291.789 58.0709 271.356 57.4024C267.882 57.2888 264.301 57.2048 260.618 57.1185L260.614 57.1184C220.934 56.1885 169.545 54.9842 115.001 13.4045C91.5787 -4.45113 77.79 -22.4808 70.903 -40.1432C64.017 -57.8028 64.0217 -75.118 68.2242 -91.5634C76.6341 -124.473 101.849 -153.883 122.285 -175.519L121.87 -175.911ZM46.9558 -87.3678C55.4061 -120.436 80.7215 -149.942 101.155 -171.574L101.57 -171.182C81.1341 -149.546 55.9191 -120.136 47.5093 -87.2263C43.3068 -70.781 43.3021 -53.4658 50.1881 -35.8062C57.0751 -18.1438 70.8638 -0.114103 94.2864 17.7415C148.83 59.3212 200.219 60.5255 239.899 61.4555L239.903 61.4556C243.586 61.5418 247.167 61.6258 250.641 61.7394C271.074 62.4079 287.858 64.1025 299.458 73.4531C311.077 82.8194 317.422 99.7985 317.183 130.822L316.612 130.818C316.851 99.8449 310.509 83.0955 299.099 73.8979C287.67 64.6846 271.083 62.9798 250.622 62.3105C247.149 62.1968 243.567 62.113 239.882 62.0268C200.196 61.0982 148.636 59.8917 93.9401 18.1958C70.4569 0.294122 56.5902 -17.8147 49.6558 -35.5986C42.7203 -53.3853 42.7282 -70.8243 46.9558 -87.3678ZM80.3957 -167.337C59.9625 -145.705 34.647 -116.199 26.1967 -83.1309C21.9691 -66.5874 21.9612 -49.1484 28.8967 -31.3617C35.8311 -13.5777 49.6979 4.53105 73.181 22.4328C127.877 64.1286 179.437 65.3351 219.123 66.2637C222.807 66.3499 226.39 66.4337 229.863 66.5474C250.323 67.2167 266.911 68.9215 278.34 78.1348C289.75 87.3324 296.091 104.082 295.853 135.054L296.424 135.059C296.663 104.035 290.318 87.0563 278.699 77.69C267.099 68.3394 250.315 66.6448 229.882 65.9764C226.41 65.8628 222.83 65.7789 219.149 65.6926L219.142 65.6924L219.14 65.6924C179.46 64.7625 128.071 63.5582 73.5273 21.9784C50.1047 4.12282 36.316 -13.9069 29.429 -31.5692C22.543 -49.2289 22.5477 -66.5441 26.7502 -82.9894C35.1601 -115.899 60.375 -145.309 80.811 -166.945L80.3957 -167.337ZM5.56212 -78.622C14.0124 -111.69 39.3279 -141.196 59.7611 -162.828L60.1764 -162.436C39.7404 -140.801 14.5255 -111.39 6.11563 -78.4806C1.91312 -62.0352 1.90846 -44.7201 8.79441 -27.0604C15.6814 -9.39804 29.4701 8.63164 52.8928 26.4873C107.436 68.067 158.825 69.2713 198.505 70.2012L198.507 70.2012L198.514 70.2014C202.195 70.2877 205.775 70.3716 209.247 70.4852C229.68 71.1536 246.464 72.8482 258.064 82.1988C269.683 91.5651 276.029 108.544 275.79 139.568L275.218 139.563C275.457 108.591 269.116 91.8412 257.706 82.6436C246.276 73.4303 229.689 71.7255 209.229 71.0562C205.755 70.9425 202.173 70.8587 198.488 70.7725C158.802 69.8439 107.242 68.6374 52.5464 26.9416C29.0633 9.03987 15.1966 -9.0689 8.26214 -26.8529C1.32666 -44.6395 1.33453 -62.0786 5.56212 -78.622ZM39.3885 -157.775C18.9553 -136.143 -6.36011 -106.637 -14.8104 -73.5688C-19.038 -57.0253 -19.0459 -39.5863 -12.1104 -21.7996C-5.17599 -4.01566 8.69072 14.0931 32.1739 31.9948C86.8697 73.6907 138.43 74.8971 178.115 75.8258C181.8 75.912 185.383 75.9958 188.856 76.1094C209.316 76.7788 225.904 78.4836 237.333 87.6969C248.743 96.8945 255.084 113.644 254.846 144.617L255.417 144.621C255.656 113.598 249.311 96.6184 237.692 87.2521C226.092 77.9015 209.307 76.2069 188.875 75.5384C185.402 75.4248 181.822 75.3409 178.142 75.2547L178.135 75.2545L178.133 75.2544C138.453 74.3245 87.0637 73.1202 32.5202 31.5405C9.09756 13.6849 -4.69113 -4.3448 -11.5781 -22.0072C-18.4641 -39.6668 -18.4594 -56.982 -14.2569 -73.4273C-5.84708 -106.337 19.3679 -135.747 39.8039 -157.383L39.3885 -157.775ZM-34.8227 -67.782C-26.3724 -100.85 -1.05696 -130.356 19.3762 -151.988L19.7916 -151.596C-0.64443 -129.96 -25.8594 -100.55 -34.2692 -67.6405C-38.4717 -51.1952 -38.4764 -33.88 -31.5904 -16.2203C-24.7034 1.44203 -10.9147 19.4717 12.5079 37.3273C67.0514 78.9071 118.441 80.1114 158.12 81.0413L158.125 81.0414C161.807 81.1276 165.389 81.2116 168.863 81.3252C189.295 81.9937 206.079 83.6883 217.679 93.0389C229.298 102.405 235.644 119.384 235.405 150.408L234.834 150.403C235.072 119.431 228.731 102.681 217.321 93.4837C205.891 84.2704 189.304 82.5656 168.844 81.8963C165.371 81.7826 161.788 81.6988 158.103 81.6126C118.418 80.684 66.8574 79.4775 12.1616 37.7817C-11.3216 19.8799 -25.1883 1.77117 -32.1227 -16.0128C-39.0582 -33.7995 -39.0503 -51.2385 -34.8227 -67.782ZM-0.205381 -145.342C-20.6386 -123.71 -45.954 -94.2039 -54.4044 -61.1359C-58.6319 -44.5924 -58.6398 -27.1534 -51.7043 -9.36671C-44.7699 8.41725 -30.9032 26.526 -7.42005 44.4277C47.2758 86.1236 98.8359 87.33 138.521 88.2587C142.206 88.3449 145.789 88.4287 149.262 88.5423C169.722 89.2117 186.31 90.9165 197.739 100.13C209.149 109.327 215.49 126.077 215.252 157.049L215.823 157.054C216.062 126.03 209.717 109.051 198.098 99.685C186.498 90.3344 169.713 88.6398 149.281 87.9713C145.807 87.8577 142.225 87.7737 138.542 87.6875L138.539 87.6873C98.8589 86.7574 47.4698 85.5531 -7.0737 43.9734C-30.4964 26.1178 -44.2851 8.08811 -51.1721 -9.57426C-58.058 -27.2339 -58.0534 -44.5491 -53.8508 -60.9944C-45.441 -93.904 -20.2261 -123.314 0.209936 -144.95L-0.205381 -145.342Z" fill="url(#paint0_radial_174_11276)"/>
<defs>
<radialGradient id="paint0_radial_174_11276" cx="0" cy="0" r="1" gradientUnits="userSpaceOnUse" gradientTransform="translate(171.546 -47.4337) rotate(46.5667) scale(247.216 252.872)">
<stop stop-color="white"/>
<stop offset="1" stop-color="#1E1E1E" stop-opacity="0"/>
<stop offset="1" stop-color="#0E0E35" stop-opacity="0"/>
<stop offset="1" stop-color="white" stop-opacity="0"/>
</radialGradient>
</defs>
</svg>
