<svg xmlns="http://www.w3.org/2000/svg" width="469" height="158" fill="none" xmlns:v="https://vecta.io/nano"><path fill-rule="evenodd" d="M252.138-368.158c-20.433 21.633-45.749 51.139-54.199 84.207-2.771 10.842-3.729 22.069-2.108 33.527-1.674 7.824-2.374 15.836-1.819 23.979l-.158.612c-1.647 6.447-2.654 13.029-2.859 19.716-.747 2.274-1.42 4.566-2.01 6.876-.38 1.486-.725 2.979-1.035 4.478-17.955 20.162-36.85 45.349-43.925 73.034-4.228 16.543-4.235 33.983 2.7 51.769s20.801 35.893 44.284 53.795c54.696 41.696 106.256 42.902 145.942 43.831l10.741.284c20.46.669 37.047 2.374 48.476 11.588 11.41 9.198 17.752 25.947 17.513 56.92l.572.004c.239-31.023-6.107-48.003-17.726-57.369-11.6-9.351-28.384-11.045-48.817-11.714l-10.742-.284c-39.68-.93-91.069-2.134-145.612-43.714-23.423-17.856-37.212-35.885-44.099-53.548s-6.881-34.975-2.678-51.421c6.956-27.222 25.411-52.05 43.149-72.064l-.433 2.398-1.291 3.158c-11.719 15.712-21.984 33.371-26.791 52.182-4.228 16.544-4.236 33.983 2.7 51.77s20.801 35.893 44.284 53.794c54.696 41.696 106.256 42.902 145.941 43.831l10.741.284c20.46.669 37.048 2.374 48.477 11.587 11.41 9.198 17.751 25.947 17.513 56.92l.571.004c.239-31.023-6.106-48.003-17.726-57.369-11.599-9.351-28.384-11.045-48.816-11.714l-10.689-.283-.03-.001h-.019-.004c-39.68-.93-91.069-2.134-145.613-43.714-23.422-17.856-37.211-35.885-44.098-53.548s-6.881-34.975-2.679-51.42c4.617-18.068 14.3-35.081 25.476-50.332l-.454 1.24c-5.607 9.898-10.172 20.327-12.934 31.137-4.228 16.544-4.236 33.983 2.7 51.77s20.801 35.892 44.284 53.794C273.534-6.467 325.094-5.261 364.779-4.332l10.741.284c20.46.669 37.048 2.374 48.477 11.587 11.41 9.198 17.751 25.947 17.513 56.92l.571.004c.239-31.023-6.106-48.002-17.726-57.369-11.599-9.351-28.384-11.045-48.816-11.714l-10.742-.284c-39.68-.93-91.069-2.134-145.613-43.714-23.423-17.856-37.211-35.885-44.098-53.548s-6.881-34.975-2.679-51.42c2.487-9.733 6.444-19.159 11.312-28.169a106.61 106.61 0 0 0-1.97 6.753c-4.227 16.543-4.235 33.982 2.701 51.769s20.801 35.893 44.284 53.794C283.43-27.742 334.99-26.535 374.675-25.607l10.741.284c20.46.669 37.048 2.374 48.477 11.587 11.41 9.198 17.751 25.947 17.513 56.92l.571.004c.239-31.023-6.106-48.003-17.726-57.369-11.599-9.351-28.384-11.045-48.816-11.714l-10.689-.283-.03-.001h-.019-.004c-39.68-.93-91.069-2.134-145.613-43.714-23.423-17.856-37.211-35.885-44.098-53.548s-6.881-34.975-2.679-51.42c.841-3.292 1.851-6.548 3.006-9.766l1.379-2.385c-1.523 12.823-.251 26.082 4.997 39.54 6.935 17.784 20.801 35.892 44.284 53.794 54.696 41.696 106.256 42.902 145.942 43.831l10.741.284c20.46.669 37.047 2.374 48.477 11.587 11.409 9.198 17.751 25.947 17.512 56.92l.572.004c.239-31.023-6.107-48.003-17.726-57.369-11.6-9.351-28.384-11.045-48.817-11.714l-10.688-.283-.031-.001h-.018-.005c-39.68-.93-91.069-2.134-145.612-43.714-23.423-17.856-37.212-35.886-44.099-53.548-5.387-13.816-6.556-27.42-4.798-40.563l2.477-4.01 1.596-2.027c.775 6.667 2.411 13.416 5.062 20.215 6.935 17.784 20.801 35.893 44.285 53.794 54.695 41.696 106.256 42.903 145.941 43.831l10.741.284c20.46.669 37.047 2.374 48.477 11.587 11.41 9.198 17.751 25.947 17.513 56.92l.571.004c.239-31.023-6.107-48.003-17.726-57.369-11.6-9.351-28.384-11.045-48.816-11.714l-10.689-.283-.031-.001h-.018-.005c-39.679-.93-91.069-2.134-145.612-43.714-23.423-17.856-37.211-35.885-44.098-53.548-2.708-6.943-4.35-13.833-5.091-20.638 2.331-2.913 4.693-5.748 7.058-8.502l.368.962c6.935 17.784 20.802 35.892 44.285 53.794 54.696 41.696 106.256 42.902 145.941 43.831l10.741.284c20.46.669 37.047 2.374 48.477 11.587 11.41 9.198 17.751 25.947 17.513 56.92l.571.004c.239-31.023-6.106-48.002-17.726-57.369-11.599-9.35-28.384-11.045-48.816-11.713l-10.689-.283-.031-.001h-.018-.004c-39.68-.93-91.069-2.135-145.613-43.714-23.423-17.856-37.211-35.886-44.098-53.548l-.476-1.248c3.359-3.896 6.72-7.626 10.001-11.173 7.92 12.214 19.452 24.501 35.443 36.691 54.696 41.696 106.256 42.903 145.942 43.831l10.741.284c20.46.669 37.047 2.374 48.476 11.587 11.41 9.198 17.752 25.948 17.513 56.92l.571.004c.239-31.023-6.106-48.002-17.725-57.368-11.6-9.351-28.384-11.046-48.817-11.714l-10.688-.283-.031-.001h-.018-.005c-39.68-.93-91.069-2.134-145.612-43.714-16.004-12.2-27.51-24.48-35.39-36.67l3.947-4.216-.415-.392-3.851 4.112-.971-1.551c6.018-7.211 12.136-13.903 17.878-19.982l-.416-.392c-5.702 6.038-11.785 12.688-17.776 19.859-.88-1.454-1.71-2.906-2.491-4.356 9.682-13.626 20.69-25.916 30.579-36.386l-.416-.392c-9.831 10.409-20.793 22.641-30.463 36.215-1.201-2.267-2.281-4.53-3.247-6.788 11.517-20.434 27.533-38.634 41.361-53.274l-.415-.392c-13.739 14.545-29.684 32.649-41.227 53.003l-.786-1.946c-.89-2.283-1.666-4.562-2.331-6.833 10.906-27.417 32.038-51.801 49.629-70.424l-.416-.393c-17.441 18.465-38.439 42.666-49.47 69.923-.968-3.447-1.685-6.877-2.172-10.287a97.35 97.35 0 0 1 .865-3.674c8.41-32.91 33.625-62.32 54.061-83.956l-.416-.392c-20.433 21.633-45.748 51.138-54.199 84.206l-.528 2.17c-1.317-10.841-.331-21.471 2.298-31.76 8.41-32.909 33.625-62.32 54.061-83.955l-.415-.393zm-63.659 173.661l-.193.967.695-1.529-.502.562zm1.825-2.035l.88-.972.171 1.95-1.925 2.968-1.698 2.201.115-.709c.777-1.827 1.597-3.64 2.457-5.438zm1.411-1.556l5.693-6.148a220.28 220.28 0 0 0-5.551 7.927l-.142-1.779zm6.455-7.79l-6.505 6.998-.021-.376c1.699-3.367 3.533-6.679 5.473-9.93a82.6 82.6 0 0 0 1.053 3.308zm-8.344 9.023l-1.11 1.235c.253-1.164.527-2.324.823-3.479.43-1.684.904-3.358 1.419-5.023-.01 1.576.025 3.158.107 4.745l-1.239 2.522zm9-7.169l-5.513 6.575a225.2 225.2 0 0 1 5.229-7.363l.284.788zm10.334-11.551a428.83 428.83 0 0 0-9.906 11.055l-.302-.845c3.008-4.042 6.115-7.957 9.253-11.731l.955 1.521zm-1.271-2.035a100.34 100.34 0 0 1-2.472-4.3c-2.764 3.913-5.416 7.936-7.899 12.056.367 1.277.77 2.556 1.208 3.837a280.12 280.12 0 0 1 9.163-11.593zm-10.989 7.675c-1.875 3.12-3.653 6.297-5.31 9.525-.074-1.876-.081-3.746-.026-5.607 1.12-3.4 2.409-6.757 3.841-10.068a80.35 80.35 0 0 0 1.495 6.15zm8.215-12.537c-2.728 3.852-5.35 7.811-7.81 11.866-.594-2.139-1.092-4.272-1.498-6.398 1.822-4.127 3.865-8.18 6.079-12.149.964 2.223 2.039 4.45 3.229 6.681zm-3.513-7.343l-.963-2.367a84.5 84.5 0 0 1-2.139-6.179c-1.529 3.932-2.846 7.925-3.911 11.971.193 2.783.534 5.582 1.034 8.393 1.803-4.013 3.811-7.956 5.979-11.818zm-6.39 12.743a79.99 79.99 0 0 1-1.059-7.601c-1.333 5.455-2.2 11.004-2.504 16.627 1.062-3.044 2.256-6.054 3.563-9.026zm3.024-22.179c-1.44 3.638-2.701 7.329-3.751 11.068-.328-6.981.264-13.863 1.594-20.611a80.64 80.64 0 0 0 2.157 9.543zm-71.49 128.355c8.451-33.068 33.766-62.573 54.199-84.206l.416.392c-20.436 21.636-45.651 51.046-54.061 83.956-4.203 16.445-4.207 33.76 2.679 51.42s20.675 35.692 44.098 53.548c54.543 41.58 105.933 42.784 145.612 43.714l10.742.284c20.433.669 37.217 2.363 48.817 11.714 11.619 9.366 17.965 26.345 17.726 57.369l-.571-.004c.238-30.973-6.103-47.722-17.513-56.92-11.43-9.213-28.017-10.918-48.477-11.587l-10.741-.284c-39.685-.929-91.246-2.135-145.941-43.831-23.484-17.902-37.35-36.01-44.285-53.794s-6.927-35.226-2.7-51.769zm35.387-76.098c-20.433 21.633-45.749 51.138-54.199 84.207-4.228 16.543-4.236 33.982 2.7 51.769s20.801 35.893 44.284 53.794c54.696 41.696 106.256 42.902 145.942 43.831l10.741.284c20.46.669 37.047 2.374 48.476 11.587 11.41 9.198 17.752 25.947 17.513 56.92l.571.004c.239-31.023-6.106-48.002-17.725-57.369-11.6-9.351-28.384-11.045-48.817-11.714l-10.742-.284c-39.68-.93-91.069-2.134-145.612-43.714-23.423-17.856-37.212-35.885-44.099-53.548s-6.881-34.975-2.679-51.42c8.41-32.91 33.625-62.32 54.061-83.956l-.415-.392zM88.102-96.637c8.45-33.068 33.766-62.574 54.199-84.206l.415.392c-20.436 21.635-45.651 51.046-54.061 83.955-4.203 16.445-4.207 33.76 2.679 51.42S112.01-9.383 135.432 8.472c54.544 41.58 105.933 42.784 145.613 43.714l10.742.284c20.432.668 37.217 2.363 48.817 11.714 11.619 9.366 17.964 26.345 17.725 57.369l-.571-.005c.238-30.972-6.103-47.722-17.513-56.919-11.429-9.213-28.017-10.918-48.477-11.588l-10.741-.284c-39.685-.929-91.245-2.135-145.941-43.831-23.483-17.902-37.35-36.01-44.284-53.794s-6.928-35.226-2.7-51.769zm33.769-79.274c-20.434 21.632-45.749 51.138-54.199 84.206-4.228 16.544-4.235 33.983 2.7 51.769s20.801 35.893 44.284 53.794c54.696 41.696 106.256 42.902 145.942 43.831l10.74.284c20.46.669 37.048 2.374 48.477 11.588 11.41 9.198 17.751 25.947 17.513 56.92l.571.004c.239-31.023-6.106-48.003-17.725-57.369-11.6-9.351-28.384-11.045-48.817-11.714l-10.738-.284h-.004c-39.68-.93-91.069-2.134-145.613-43.714C91.579-4.451 77.79-22.481 70.903-40.143s-6.881-34.975-2.679-51.42c8.41-32.91 33.625-62.32 54.061-83.956l-.415-.392zM46.956-87.368c8.45-33.068 33.766-62.574 54.199-84.206l.415.392c-20.436 21.636-45.651 51.046-54.061 83.956-4.203 16.445-4.207 33.76 2.679 51.42S70.864-.114 94.286 17.742c54.544 41.58 105.933 42.784 145.613 43.714h.004l10.738.284c20.433.668 37.217 2.363 48.817 11.714 11.619 9.366 17.964 26.345 17.725 57.369l-.571-.004c.239-30.973-6.103-47.723-17.513-56.92-11.429-9.213-28.016-10.918-48.477-11.587l-10.74-.284c-39.686-.929-91.246-2.135-145.942-43.831C70.457.294 56.59-17.815 49.656-35.599s-6.928-35.226-2.7-51.769zm33.44-79.969c-20.433 21.632-45.749 51.138-54.199 84.206-4.228 16.543-4.235 33.982 2.7 51.769S49.698 4.531 73.181 22.433c54.696 41.696 106.256 42.902 145.942 43.831l10.74.284c20.46.669 37.048 2.374 48.477 11.587 11.41 9.198 17.751 25.947 17.513 56.919l.571.005c.239-31.024-6.106-48.003-17.725-57.369-11.6-9.351-28.384-11.045-48.817-11.714l-10.733-.284h-.007-.002c-39.68-.93-91.069-2.134-145.613-43.714C50.105 4.123 36.316-13.907 29.429-31.569s-6.881-34.975-2.679-51.42c8.41-32.91 33.625-62.32 54.061-83.956l-.415-.392zM5.562-78.622c8.45-33.068 33.766-62.574 54.199-84.206l.415.392C39.74-140.801 14.526-111.39 6.116-78.481 1.913-62.035 1.908-44.72 8.794-27.06S29.47 8.632 52.893 26.487c54.543 41.58 105.932 42.784 145.612 43.714h.002.007l10.733.284c20.433.668 37.217 2.363 48.817 11.714 11.619 9.366 17.965 26.345 17.726 57.369l-.572-.005c.239-30.972-6.102-47.722-17.512-56.919-11.43-9.213-28.017-10.918-48.477-11.587l-10.741-.284c-39.686-.929-91.246-2.135-145.942-43.831C29.063 9.04 15.197-9.069 8.262-26.853s-6.928-35.226-2.7-51.769zm33.826-79.153C18.955-136.143-6.36-106.637-14.81-73.569c-4.228 16.543-4.235 33.982 2.7 51.769S8.691 14.093 32.174 31.995C86.87 73.691 138.43 74.897 178.115 75.826l10.741.284c20.46.669 37.048 2.374 48.477 11.588 11.41 9.198 17.751 25.947 17.513 56.92l.571.004c.239-31.023-6.106-48.003-17.725-57.369-11.6-9.351-28.385-11.045-48.817-11.714l-10.733-.284h-.007-.002c-39.68-.93-91.069-2.134-145.613-43.714C9.098 13.685-4.691-4.345-11.578-22.007s-6.881-34.975-2.679-51.42c8.41-32.91 33.625-62.32 54.061-83.956l-.415-.392zm-74.211 89.993c8.45-33.068 33.766-62.574 54.199-84.206l.415.392C-.644-129.96-25.859-100.55-34.269-67.64c-4.203 16.445-4.207 33.761 2.679 51.42s20.676 35.692 44.098 53.548c54.544 41.58 105.933 42.784 145.612 43.714h.005l10.738.284c20.432.669 37.216 2.363 48.816 11.714 11.619 9.366 17.965 26.345 17.726 57.369l-.571-.005c.238-30.972-6.103-47.722-17.513-56.919-11.43-9.213-28.017-10.918-48.477-11.587l-10.741-.284c-39.685-.929-91.246-2.135-145.941-43.831-23.483-17.902-37.35-36.011-44.284-53.794s-6.928-35.226-2.7-51.769zm34.617-77.56c-20.433 21.632-45.749 51.138-54.199 84.206-4.227 16.544-4.235 33.983 2.7 51.769S-30.903 26.526-7.42 44.428C47.276 86.124 98.836 87.33 138.521 88.259l10.741.284c20.46.669 37.048 2.374 48.477 11.588 11.41 9.197 17.751 25.947 17.513 56.919l.571.005c.239-31.024-6.106-48.003-17.725-57.369-11.6-9.351-28.385-11.045-48.817-11.714l-10.739-.284h-.003c-39.68-.93-91.069-2.134-145.613-43.714C-30.496 26.118-44.285 8.088-51.172-9.574s-6.881-34.975-2.679-51.42c8.41-32.91 33.625-62.32 54.061-83.956l-.415-.392z" fill="url(#A)"/><defs><radialGradient id="A" cx="0" cy="0" r="1" gradientUnits="userSpaceOnUse" gradientTransform="translate(171.546 -47.4337) rotate(46.5667) scale(247.216 252.872)"><stop stop-color="#fff"/><stop offset="1" stop-color="#1e1e1e" stop-opacity="0"/><stop offset="1" stop-color="#0e0e35" stop-opacity="0"/><stop offset="1" stop-color="#fff" stop-opacity="0"/></radialGradient></defs></svg>