<svg xmlns="http://www.w3.org/2000/svg" width="18" height="18" fill="none" xmlns:v="https://vecta.io/nano"><path d="M18 1.324v15.353c0 .351-.139.688-.388.936s-.585.388-.936.388H1.324c-.351 0-.688-.139-.936-.388S0 17.028 0 16.677V1.324C0 .973.139.636.388.388S.973 0 1.324 0h15.353c.351 0 .688.139.936.388s.388.585.388.936zM5.294 6.882H2.647v8.471h2.647V6.882zm.238-2.912c.001-.2-.037-.399-.112-.584s-.186-.354-.327-.497-.308-.256-.492-.334-.382-.119-.583-.12h-.048c-.407 0-.798.162-1.086.45s-.45.678-.45 1.086.162.798.45 1.086.678.45 1.086.45c.2.005.399-.03.586-.102s.358-.18.503-.318.261-.304.343-.487.125-.38.13-.581v-.048zm9.821 6.237c0-2.547-1.62-3.537-3.229-3.537-.527-.026-1.052.086-1.522.326s-.869.598-1.157 1.04h-.074V6.882H6.882v8.471h2.647v-4.505a1.76 1.76 0 0 1 1.588-1.895h.101c.842 0 1.467.529 1.467 1.864v4.537h2.647l.021-5.146z" fill="#fff"/></svg>