<svg xmlns="http://www.w3.org/2000/svg" width="20" height="16" fill="none" xmlns:v="https://vecta.io/nano"><path fill-rule="evenodd" d="M1.375 6.888l10.74-4.466L18.985 0c.152-.003.493.034.714.207.186.146.238.343.262.481a3.03 3.03 0 0 1 .031.7c-.277 2.811-1.476 9.633-2.087 12.781-.258 1.332-.766 1.779-1.258 1.823-1.07.095-1.882-.682-2.917-1.338l-4.11-2.665c-1.818-1.157-.64-1.792.397-2.831.271-.272 4.983-4.409 5.074-4.785.011-.047.022-.222-.086-.314s-.267-.061-.381-.036c-.162.036-2.752 1.688-7.768 4.956-.735.487-1.401.725-1.997.712-.658-.014-1.922-.359-2.863-.654C.842 8.676-.075 8.485.005 7.87c.042-.32.498-.648 1.37-.982z" fill="#fff"/></svg>