<svg xmlns="http://www.w3.org/2000/svg" width="256" height="256" xmlns:v="https://vecta.io/nano"><path d="M238.835 64.73c-14.455 0-27.794-4.788-38.503-12.867-12.283-9.262-21.109-22.845-24.225-38.503-.776-3.869-1.189-7.862-1.231-11.954h-41.293v112.833l-.051 61.803c0 16.523-10.759 30.533-25.675 35.459a37.54 37.54 0 0 1-13.873 1.841c-6.213-.34-12.035-2.217-17.096-5.243-10.771-6.441-18.071-18.127-18.271-31.494-.312-20.892 16.579-37.924 37.454-37.924 4.122 0 8.079.672 11.785 1.894v-30.837-11.085a81.25 81.25 0 0 0-11.909-.88c-22.851 0-44.221 9.498-59.499 26.611-11.546 12.932-18.473 29.429-19.541 46.73-1.399 22.727 6.915 44.331 23.045 60.272a80.36 80.36 0 0 0 7.461 6.516c13.828 10.636 30.733 16.405 48.537 16.405a81.28 81.28 0 0 0 11.909-.877c16.632-2.464 31.978-10.077 44.089-22.05 14.882-14.708 23.104-34.234 23.191-55.017l-.214-92.292a104.24 104.24 0 0 0 23.191 13.525 104.44 104.44 0 0 0 40.832 8.233V75.846 64.722c.011.008-.107.008-.115.008h0z" fill="#fff"/></svg>